<svg width="24" height="24" viewBox="0 0 24 24" fill="none" xmlns="http://www.w3.org/2000/svg">
<g clip-path="url(#clip0_18_50)">
<path d="M0 6.29072L10.0093 10.7393L10.6868 9.21486L0.677519 4.76628L0 6.29072ZM11.1822 22.2107V9.97708H9.51395V22.2107H11.1822ZM10.6868 10.7393L20.6961 6.29072L20.0186 4.76628L10.0093 9.21486L10.6868 10.7393Z" fill="#202722"/>
<path d="M0.338715 17.3285V5.96215C0.338715 5.69845 0.494014 5.45948 0.734994 5.35238L10.077 1.20036C10.2496 1.12368 10.4464 1.12368 10.619 1.20036L19.9611 5.35238C20.2021 5.45948 20.3573 5.69845 20.3573 5.96215V17.3285C20.3573 17.5922 20.2021 17.8312 19.9611 17.9383L10.619 22.0902C10.4464 22.1669 10.2496 22.1669 10.077 22.0902L0.734994 17.9383C0.494014 17.8312 0.338715 17.5922 0.338715 17.3285Z" stroke="#202722" stroke-width="1.45969" stroke-linecap="round" stroke-linejoin="round"/>
<path d="M5.34337 3.30415L14.9564 7.57661C15.1974 7.68371 15.3527 7.92268 15.3527 8.18638V12.2013" stroke="#202722" stroke-width="1.45969" stroke-linecap="round" stroke-linejoin="round"/>
<g clip-path="url(#clip1_18_50)">
<circle cx="19.5" cy="17.5" r="3.5" fill="#C92929"/>
<path d="M19.4292 19V16.1533H19.4146L18.5161 16.7734V16.1094L19.4268 15.4771H20.1592V19H19.4292Z" fill="white"/>
</g>
</g>
<defs>
<clipPath id="clip0_18_50">
<rect width="24" height="24" fill="white"/>
</clipPath>
<clipPath id="clip1_18_50">
<rect width="7" height="7" fill="white" transform="translate(16 14)"/>
</clipPath>
</defs>
</svg>
